<?xml version="1.0" encoding="UTF-8" standalone="no"?>
<!DOCTYPE svg PUBLIC "-//W3C//DTD SVG 1.1//EN" "http://www.w3.org/Graphics/SVG/1.1/DTD/svg11.dtd">
<!-- Created with Vectornator (http://vectornator.io/) -->
<svg height="100%" stroke-miterlimit="10" style="fill-rule:nonzero;clip-rule:evenodd;stroke-linecap:round;stroke-linejoin:round;" version="1.1" viewBox="0 0 24 24" width="100%" xml:space="preserve" xmlns="http://www.w3.org/2000/svg" xmlns:xlink="http://www.w3.org/1999/xlink">
<defs/>
<g id="Untitled">
<path d="M12 6C10.9 6 10 5.1 10 4C10 2.9 10.9 2 12 2C13.1 2 14 2.9 14 4C14 5.1 13.1 6 12 6ZM17.95 2L17.95 2C18.54 2 19.01 2.51 18.95 3.09C18.93 3.24 18.74 7.15 15 8.4L15 21C15 21.55 14.55 22 14 22L14 22C13.45 22 13 21.55 13 21L13 16L11 16L11 21C11 21.55 10.55 22 10 22L10 22C9.45 22 9 21.55 9 21L9 10.1C8.7 10.2 8.5 10.3 8.4 10.4C7.94 10.76 7.23 11.27 7.04 13.07C6.99 13.59 6.57 14 6.04 14L6.04 14C5.46 14 4.99 13.51 5.04 12.93C5.17 11.33 5.66 9.95 7.11 8.71C8.21 7.81 10 7 12 7C14 7 14.68 6.54 15.48 5.94C15.91 5.6 16.76 4.95 16.96 2.92C17.01 2.4 17.43 2 17.95 2ZM5 16L6 16C6.55 16 7 16.45 7 17L7 21C7 21.55 6.55 22 6 22L5 22C4.45 22 4 21.55 4 21L4 17C4 16.45 4.45 16 5 16Z" fill="#e9e9e9" fill-rule="nonzero" opacity="1" stroke="none"/>
</g>
</svg>
