<?xml version="1.0" encoding="UTF-8" standalone="no"?>
<!DOCTYPE svg PUBLIC "-//W3C//DTD SVG 1.1//EN" "http://www.w3.org/Graphics/SVG/1.1/DTD/svg11.dtd">
<!-- Created with Vectornator (http://vectornator.io/) -->
<svg height="100%" stroke-miterlimit="10" style="fill-rule:nonzero;clip-rule:evenodd;stroke-linecap:round;stroke-linejoin:round;" version="1.1" viewBox="0 0 24 24" width="100%" xml:space="preserve" xmlns="http://www.w3.org/2000/svg" xmlns:xlink="http://www.w3.org/1999/xlink">
<defs/>
<g id="Untitled">
<path d="M20.74 4.96C20.61 4.43 20.07 4.11 19.54 4.23C17.16 4.77 14.49 5 12 5C9.51 5 6.84 4.77 4.46 4.24C3.92 4.12 3.39 4.43 3.26 4.97L3.24 5.02C3.11 5.56 3.43 6.12 3.97 6.24C5.59 6.61 7.34 6.86 9 7L9 18C9 18.55 9.45 19 10 19L10 19C10.55 19 11 18.55 11 18L11 13L13 13L13 18C13 18.55 13.45 19 14 19L14 19C14.55 19 15 18.55 15 18L15 7C16.66 6.86 18.41 6.61 20.03 6.24C20.57 6.12 20.89 5.56 20.76 5.02L20.74 4.96ZM12 4C13.1 4 14 3.1 14 2C14 0.9 13.1 0 12 0C10.9 0 10 0.9 10 2C10 3.1 10.9 4 12 4ZM8 24L8 24C8.55 24 9 23.55 9 23L9 23C9 22.45 8.55 22 8 22L8 22C7.45 22 7 22.45 7 23L7 23C7 23.55 7.45 24 8 24ZM12 24L12 24C12.55 24 13 23.55 13 23L13 23C13 22.45 12.55 22 12 22L12 22C11.45 22 11 22.45 11 23L11 23C11 23.55 11.45 24 12 24ZM16 24L16 24C16.55 24 17 23.55 17 23L17 23C17 22.45 16.55 22 16 22L16 22C15.45 22 15 22.45 15 23L15 23C15 23.55 15.45 24 16 24Z" fill="#e9e9e9" fill-rule="nonzero" opacity="1" stroke="none"/>
</g>
</svg>
